<svg width="17" height="21" viewBox="0 0 17 21" fill="none" xmlns="http://www.w3.org/2000/svg">
<path d="M9.80033 4.71269C9.96887 3.33601 9.40299 0.672761 5.79111 1.0332C5.45402 2.43491 5.78394 5.13319 9.80033 4.71269Z" fill="white"/>
<path d="M1.31805 10.9806C3.21957 6.0421 6.86083 6.62307 8.6642 7.64127C10.4676 6.62307 13.7804 6.04209 15.6819 10.9806C16.5713 13.2903 15.3133 15.5259 15.3133 15.5259C14.7661 17.4282 12.6865 21.0076 8.5 19.7311C4.31351 21.0076 2.23394 17.4283 1.68669 15.5259C1.68669 15.5259 0.428743 13.2903 1.31805 10.9806Z" fill="white"/>
<path d="M8.6642 7.64127L8.36921 8.16374L8.6642 8.3303L8.95919 8.16374L8.6642 7.64127ZM12.1823 3.53784C12.4873 3.4083 12.6295 3.05604 12.5 2.75103C12.3704 2.44603 12.0182 2.30379 11.7132 2.43333L12.1823 3.53784ZM5.79111 1.0332L5.73153 0.436166L5.30741 0.478491L5.20775 0.892909L5.79111 1.0332ZM1.31805 10.9806L0.758127 10.765L1.31805 10.9806ZM1.68669 15.5259L2.2633 15.3601L2.24394 15.2927L2.20959 15.2317L1.68669 15.5259ZM8.5 19.7311L8.675 19.1572L8.5 19.1038L8.325 19.1572L8.5 19.7311ZM15.6819 10.9806L16.2419 10.765L15.6819 10.9806ZM15.3133 15.5259L14.7904 15.2317L14.7561 15.2927L14.7367 15.36L15.3133 15.5259ZM8.00557 13.0766C8.10436 12.7603 7.92803 12.4238 7.61173 12.325C7.29543 12.2262 6.95893 12.4025 6.86014 12.7188L8.00557 13.0766ZM6.53179 13.7701C6.43299 14.0864 6.60932 14.4229 6.92562 14.5217C7.24192 14.6205 7.57842 14.4442 7.67722 14.1279L6.53179 13.7701ZM9.48696 14.1279C9.58575 14.4442 9.92225 14.6205 10.2386 14.5217C10.5549 14.4229 10.7312 14.0864 10.6324 13.7701L9.48696 14.1279ZM10.304 12.7188C10.2052 12.4025 9.86874 12.2262 9.55244 12.325C9.23614 12.4238 9.05981 12.7603 9.15861 13.0766L10.304 12.7188ZM9.2642 7.64127C9.2642 7.10147 9.56308 6.03679 10.2817 5.07083L9.31893 4.35456C8.47537 5.48844 8.0642 6.79859 8.0642 7.64127H9.2642ZM10.2817 5.07083C10.7512 4.4398 11.3801 3.87854 12.1823 3.53784L11.7132 2.43333C10.6782 2.87291 9.88945 3.58768 9.31893 4.35456L10.2817 5.07083ZM10.3959 4.7856C10.492 4.00035 10.3872 2.8233 9.7 1.87052C8.97855 0.870334 7.70536 0.239192 5.73153 0.436166L5.85069 1.63024C7.48874 1.46677 8.30444 1.98703 8.72676 2.57253C9.18329 3.20544 9.27718 4.04835 9.20477 4.63978L10.3959 4.7856ZM5.20775 0.892909C5.01669 1.68736 4.99511 2.90608 5.66709 3.89378C6.37475 4.93392 7.7184 5.53394 9.8628 5.30943L9.73785 4.11595C7.86587 4.31194 7.03636 3.77307 6.65924 3.21877C6.24644 2.61203 6.22845 1.78075 6.37448 1.17349L5.20775 0.892909ZM8.95919 7.11879C7.96892 6.55968 6.44834 6.10196 4.88184 6.49523C3.27703 6.89811 1.76184 8.15821 0.758127 10.765L1.87798 11.1962C2.77578 8.86449 4.03199 7.94582 5.17403 7.65911C6.35438 7.36279 7.55611 7.70466 8.36921 8.16374L8.95919 7.11879ZM0.758127 10.765C0.255289 12.071 0.364935 13.3401 0.585429 14.2593C0.696282 14.7215 0.837345 15.1049 0.951524 15.3745C1.00875 15.5096 1.05961 15.6171 1.09719 15.6926C1.11599 15.7304 1.13151 15.7603 1.14288 15.7817C1.14857 15.7924 1.15322 15.801 1.15674 15.8074C1.1585 15.8107 1.15997 15.8133 1.16115 15.8154C1.16174 15.8165 1.16225 15.8174 1.16269 15.8182C1.16291 15.8186 1.16311 15.819 1.16329 15.8193C1.16338 15.8195 1.16351 15.8197 1.16355 15.8197C1.16367 15.82 1.16378 15.8202 1.68669 15.5259C2.20959 15.2317 2.20969 15.2319 2.20979 15.2321C2.20982 15.2321 2.20991 15.2323 2.20996 15.2324C2.21007 15.2325 2.21015 15.2327 2.21022 15.2328C2.21036 15.2331 2.21042 15.2332 2.2104 15.2332C2.21038 15.2331 2.21006 15.2325 2.20947 15.2315C2.20828 15.2293 2.20598 15.225 2.20267 15.2188C2.19605 15.2064 2.18541 15.1859 2.17155 15.1581C2.14381 15.1023 2.10334 15.0171 2.05653 14.9066C1.96264 14.6848 1.8448 14.3649 1.75233 13.9794C1.56618 13.2034 1.49151 12.1999 1.87798 11.1962L0.758127 10.765ZM1.11007 15.6918C1.40529 16.718 2.11102 18.202 3.33343 19.272C4.58799 20.3702 6.36712 21.0087 8.675 20.305L8.325 19.1572C6.44638 19.73 5.09249 19.217 4.12382 18.3691C3.12302 17.493 2.51534 16.2362 2.2633 15.3601L1.11007 15.6918ZM8.95919 8.16374C9.78455 7.69774 10.8977 7.36747 11.9815 7.65686C13.0324 7.93745 14.2169 8.84551 15.122 11.1962L16.2419 10.765C15.2455 8.17717 13.8228 6.90647 12.291 6.49748C10.7922 6.09728 9.34722 6.5666 8.36921 7.11879L8.95919 8.16374ZM15.122 11.1962C15.5085 12.1999 15.4338 13.2034 15.2477 13.9794C15.1552 14.3649 15.0374 14.6848 14.9435 14.9065C14.8967 15.0171 14.8562 15.1023 14.8284 15.1581C14.8146 15.1859 14.8039 15.2063 14.7973 15.2188C14.794 15.225 14.7917 15.2293 14.7905 15.2314C14.7899 15.2325 14.7896 15.2331 14.7896 15.2331C14.7896 15.2332 14.7896 15.2331 14.7898 15.2328C14.7898 15.2327 14.7899 15.2325 14.79 15.2324C14.7901 15.2323 14.7902 15.2321 14.7902 15.232C14.7903 15.2319 14.7904 15.2317 15.3133 15.5259C15.8362 15.8201 15.8363 15.8199 15.8364 15.8197C15.8365 15.8197 15.8366 15.8194 15.8367 15.8193C15.8369 15.819 15.8371 15.8186 15.8373 15.8182C15.8377 15.8174 15.8383 15.8165 15.8388 15.8154C15.84 15.8133 15.8415 15.8106 15.8433 15.8074C15.8468 15.801 15.8514 15.7924 15.8571 15.7817C15.8685 15.7603 15.884 15.7304 15.9028 15.6926C15.9404 15.6171 15.9913 15.5096 16.0485 15.3745C16.1627 15.1048 16.3037 14.7215 16.4146 14.2593C16.6351 13.3401 16.7447 12.0709 16.2419 10.765L15.122 11.1962ZM14.7367 15.36C14.4847 16.2362 13.877 17.493 12.8762 18.3691C11.9075 19.217 10.5536 19.73 8.675 19.1572L8.325 20.305C10.6329 21.0087 12.412 20.3702 13.6666 19.272C14.889 18.202 15.5947 16.718 15.8899 15.6918L14.7367 15.36ZM6.86014 12.7188L6.53179 13.7701L7.67722 14.1279L8.00557 13.0766L6.86014 12.7188ZM10.6324 13.7701L10.304 12.7188L9.15861 13.0766L9.48696 14.1279L10.6324 13.7701Z" fill="black"/>
</svg>
