<svg width="24" height="22" viewBox="0 0 24 22" fill="none" xmlns="http://www.w3.org/2000/svg">
<path d="M14.544 2.44444L16.74 4.88889H21.6V19.5556H2.4V4.88889H7.26L9.456 2.44444H14.544ZM15.6 0H8.4L6.204 2.44444H2.4C1.08 2.44444 0 3.54444 0 4.88889V19.5556C0 20.9 1.08 22 2.4 22H21.6C22.92 22 24 20.9 24 19.5556V4.88889C24 3.54444 22.92 2.44444 21.6 2.44444H17.796L15.6 0ZM12 8.55556C13.98 8.55556 15.6 10.2056 15.6 12.2222C15.6 14.2389 13.98 15.8889 12 15.8889C10.02 15.8889 8.4 14.2389 8.4 12.2222C8.4 10.2056 10.02 8.55556 12 8.55556ZM12 6.11111C8.688 6.11111 6 8.84889 6 12.2222C6 15.5956 8.688 18.3333 12 18.3333C15.312 18.3333 18 15.5956 18 12.2222C18 8.84889 15.312 6.11111 12 6.11111Z" fill="black" fill-opacity="0.6"/>
</svg>
