<svg width="42" height="42" viewBox="0 0 42 42" fill="none" xmlns="http://www.w3.org/2000/svg">
<path d="M32.0332 24.8965C31.7051 24.7598 31.3701 24.7529 31.0283 24.876C30.6865 24.999 30.4473 25.2246 30.3105 25.5527L30.126 25.9219L29.6133 26.7422L28.7109 27.9316L27.3984 29.1826L25.6758 30.3516L23.5225 31.1924L20.918 31.541C20.8906 31.541 20.8633 31.5479 20.8359 31.5615L20.7949 31.582C20.0293 31.582 19.291 31.5 18.5801 31.3359C17.8691 31.1719 17.2402 30.9463 16.6934 30.6592C16.1465 30.3721 15.6338 30.0645 15.1553 29.7363C14.6768 29.4082 14.2529 29.0459 13.8838 28.6494C13.5146 28.2529 13.1934 27.8906 12.9199 27.5625C12.6465 27.2344 12.4141 26.9062 12.2227 26.5781C12.0312 26.25 11.8945 26.0176 11.8125 25.8809C11.7305 25.7441 11.6758 25.6348 11.6484 25.5527C11.4844 25.2246 11.2383 24.999 10.9102 24.876C10.582 24.7529 10.2471 24.7666 9.90527 24.917C9.56348 25.0674 9.33105 25.3066 9.20801 25.6348C9.08496 25.9629 9.10547 26.3047 9.26953 26.6602C9.29688 26.7422 9.34473 26.8516 9.41309 26.9883C9.48145 27.125 9.625 27.3643 9.84375 27.7061C10.0625 28.0479 10.2881 28.3896 10.5205 28.7314C10.7529 29.0732 11.0674 29.4629 11.4639 29.9004C11.8604 30.3379 12.2773 30.748 12.7148 31.1309C13.1523 31.5137 13.665 31.8965 14.2529 32.2793C14.8408 32.6621 15.4561 32.9902 16.0986 33.2637C16.7412 33.5371 17.4658 33.7627 18.2725 33.9404C19.0791 34.1182 19.9062 34.207 20.7539 34.207C20.7812 34.207 20.8359 34.1934 20.918 34.166C22.4766 34.166 23.9531 33.8994 25.3477 33.3662C26.7422 32.833 27.8496 32.2451 28.6699 31.6025C29.4902 30.96 30.2354 30.2148 30.9053 29.3672C31.5752 28.5195 32.0127 27.9111 32.2178 27.542C32.4229 27.1729 32.5801 26.8652 32.6895 26.6191C32.7715 26.5098 32.8193 26.3799 32.833 26.2295C32.8467 26.0791 32.833 25.9424 32.792 25.8193C32.751 25.6963 32.7031 25.5732 32.6484 25.4502C32.5938 25.3271 32.5117 25.2178 32.4023 25.1221C32.293 25.0264 32.1699 24.9512 32.0332 24.8965ZM21 0C18.1562 0 15.4355 0.553711 12.8379 1.66113C10.2402 2.76855 8.00488 4.25879 6.13184 6.13184C4.25879 8.00488 2.76855 10.2402 1.66113 12.8379C0.553711 15.4355 0 18.1562 0 21C0 23.8438 0.553711 26.5645 1.66113 29.1621C2.76855 31.7598 4.25879 33.9951 6.13184 35.8682C8.00488 37.7412 10.2402 39.2314 12.8379 40.3389C15.4355 41.4463 18.1562 42 21 42C23.8438 42 26.5645 41.4463 29.1621 40.3389C31.7598 39.2314 33.9951 37.7412 35.8682 35.8682C37.7412 33.9951 39.2314 31.7598 40.3389 29.1621C41.4463 26.5645 42 23.8438 42 21C42 18.1562 41.4463 15.4355 40.3389 12.8379C39.2314 10.2402 37.7412 8.00488 35.8682 6.13184C33.9951 4.25879 31.7598 2.76855 29.1621 1.66113C26.5645 0.553711 23.8438 0 21 0ZM21 39.375C19.0039 39.375 17.0693 39.0674 15.1963 38.4521C13.3232 37.8369 11.6348 36.9619 10.1309 35.8271C8.62695 34.6924 7.30762 33.373 6.17285 31.8691C5.03809 30.3652 4.16309 28.6768 3.54785 26.8037C2.93262 24.9307 2.625 22.9961 2.625 21C2.625 18.5117 3.11035 16.1328 4.08105 13.8633C5.05176 11.5938 6.35742 9.63867 7.99805 7.99805C9.63867 6.35742 11.5938 5.05176 13.8633 4.08105C16.1328 3.11035 18.5117 2.625 21 2.625C23.4883 2.625 25.8672 3.11035 28.1367 4.08105C30.4062 5.05176 32.3613 6.35742 34.002 7.99805C35.6426 9.63867 36.9482 11.5938 37.9189 13.8633C38.8896 16.1328 39.375 18.5117 39.375 21C39.375 23.4883 38.8896 25.8672 37.9189 28.1367C36.9482 30.4062 35.6426 32.3613 34.002 34.002C32.3613 35.6426 30.4062 36.9482 28.1367 37.9189C25.8672 38.8896 23.4883 39.375 21 39.375ZM14.4375 19.6875C15.1484 19.6875 15.7568 19.4277 16.2627 18.9082C16.7686 18.3887 17.0215 17.7734 17.0215 17.0625C17.0215 16.5977 16.9053 16.1602 16.6729 15.75C16.4404 15.3398 16.126 15.0186 15.7295 14.7861C15.333 14.5537 14.9023 14.4375 14.4375 14.4375C13.6992 14.4375 13.0771 14.6973 12.5713 15.2168C12.0654 15.7363 11.8125 16.3516 11.8125 17.0625C11.8125 18.1289 12.2773 18.9082 13.207 19.4004C13.6172 19.5918 14.0273 19.6875 14.4375 19.6875ZM27.5625 19.6875C27.7539 19.6875 27.9453 19.6602 28.1367 19.6055C28.3281 19.5508 28.5127 19.4824 28.6904 19.4004C28.8682 19.3184 29.0322 19.2158 29.1826 19.0928C29.333 18.9697 29.4697 18.833 29.5928 18.6826C29.7158 18.5322 29.8184 18.375 29.9004 18.2109C29.9824 18.0469 30.0439 17.8623 30.085 17.6572C30.126 17.4521 30.1465 17.2539 30.1465 17.0625C30.1465 16.3516 29.8936 15.7363 29.3877 15.2168C28.8818 14.6973 28.2666 14.4375 27.542 14.4375C26.8174 14.4375 26.2021 14.6973 25.6963 15.2168C25.1904 15.7363 24.9375 16.3516 24.9375 17.0625C24.9375 17.7734 25.1904 18.3887 25.6963 18.9082C26.2021 19.4277 26.8242 19.6875 27.5625 19.6875Z" fill="black"/>
</svg>
