<svg width="30" height="30" viewBox="0 0 30 30" fill="none" xmlns="http://www.w3.org/2000/svg">
<path d="M17.625 16.5C17.625 16.0027 17.8225 15.5258 18.1742 15.1742C18.5258 14.8225 19.0027 14.625 19.5 14.625C19.9973 14.625 20.4742 14.8225 20.8258 15.1742C21.1775 15.5258 21.375 16.0027 21.375 16.5C21.375 16.9973 21.1775 17.4742 20.8258 17.8258C20.4742 18.1775 19.9973 18.375 19.5 18.375C19.0027 18.375 18.5258 18.1775 18.1742 17.8258C17.8225 17.4742 17.625 16.9973 17.625 16.5ZM30 15V30H0V15C0 6.75 6.75 0 15 0C23.25 0 30 6.75 30 15ZM3 15C3 21.615 8.385 27 15 27C21.615 27 27 21.615 27 15C27 13.815 26.82 12.675 26.505 11.61C23.6051 12.2837 20.5702 12.0769 17.7885 11.016C15.0068 9.95519 12.6049 8.08857 10.89 5.655C9.42 9.24 6.615 12.135 3.075 13.71C3 14.13 3 14.565 3 15ZM10.5 18.375C10.9973 18.375 11.4742 18.1775 11.8258 17.8258C12.1775 17.4742 12.375 16.9973 12.375 16.5C12.375 16.0027 12.1775 15.5258 11.8258 15.1742C11.4742 14.8225 10.9973 14.625 10.5 14.625C10.0027 14.625 9.52581 14.8225 9.17418 15.1742C8.82254 15.5258 8.625 16.0027 8.625 16.5C8.625 16.9973 8.82254 17.4742 9.17418 17.8258C9.52581 18.1775 10.0027 18.375 10.5 18.375Z" fill="black"/>
</svg>
