<svg width="50" height="50" viewBox="0 0 50 50" fill="none" xmlns="http://www.w3.org/2000/svg">
<path d="M28.2021 22.6031C27.9482 23.064 27.6943 23.5289 27.4521 23.9898L27.249 24.3726L27.2295 24.4039C27.9443 25.3531 28.5576 26.3726 29.042 27.4078C29.1123 27.5523 29.1787 27.7007 29.2451 27.8492C29.9365 27.646 30.6318 27.5328 31.3115 27.5054C30.7998 26.1499 30.0107 24.7437 28.8506 23.3218C28.6475 23.0757 28.4248 22.8414 28.2021 22.6031Z" fill="#FFD9E9"/>
<path d="M30.2881 33.0717C30.1436 33.0717 29.9951 33.0795 29.8467 33.0952C29.0381 35.6498 26.4131 36.767 23.6396 36.4233C19.2842 35.8881 15.2881 32.5756 13.9482 28.4155C13.6748 27.5834 13.5811 26.7553 13.5498 25.8725C13.4717 23.5991 13.9092 21.1655 16.1865 20.2241L16.2139 20.2124C16.2881 20.1811 16.3623 20.1616 16.4365 20.1381C16.2725 19.892 16.1045 19.6342 15.9443 19.3491C15.7178 18.9467 15.5811 18.5209 15.499 18.1069C13.0576 18.9584 11.5693 21.1147 10.5264 23.4897C9.53027 25.7631 3.05762 43.2436 3.05762 43.2436L2.19043 45.5873C1.89355 46.3998 1.43262 47.2163 1.43262 48.103C1.43262 49.1381 2.35449 49.8452 3.39355 49.5561C4.08887 49.3608 4.85449 49.0014 5.56152 48.7202C7.05762 48.1108 9.83105 46.9116 9.83105 46.9116L21.4248 42.1381C21.4248 42.1381 27.0146 40.1147 29.3662 37.8998C30.5068 36.8256 31.4209 35.2788 31.8232 33.4311C31.7412 33.3881 31.6553 33.3413 31.5693 33.3061C31.1787 33.1459 30.7607 33.0717 30.2881 33.0717Z" fill="#C1CFFF"/>
<path d="M21.5967 18.3765C21.8975 18.9507 22.2295 19.603 22.3545 20.4116C22.9092 20.646 23.4404 20.9272 23.9443 21.2593C24.1201 20.6968 24.3037 20.1421 24.4951 19.5757C24.4131 19.5249 24.3311 19.4663 24.249 19.4194C23.4248 18.9507 22.499 18.5522 21.5342 18.2554C21.5576 18.2983 21.5771 18.3335 21.5967 18.3765Z" fill="#FFD9E9"/>
<path d="M43.5691 12.2983C43.5066 12.689 43.5222 13.2436 43.5847 13.6265C43.6511 14.0561 43.7488 14.5132 43.905 14.9194C44.1277 15.4897 44.4011 15.2905 44.9597 15.2124C45.3464 15.1616 45.7058 15.189 46.0886 15.1108C46.491 15.0288 46.8894 14.9233 47.2917 14.8452C48.2371 14.6655 48.7097 14.4546 48.5105 13.4585C48.366 12.7397 48.1277 12.0249 47.9402 11.314C47.7683 11.1616 47.4363 11.2476 47.2331 11.2944C46.8738 11.3765 46.5183 11.396 46.1589 11.4585C45.5105 11.564 44.8308 11.6421 44.1941 11.7944C43.8699 11.8647 43.6199 11.9624 43.5691 12.2983Z" fill="#FFE352"/>
<path d="M38.4674 24.0249C38.6158 24.3647 38.9791 24.2788 39.3346 24.3569C40.1236 24.5366 40.9244 24.5171 41.733 24.5171C42.0338 24.5171 42.7955 24.6303 43.0104 24.3608C43.1822 24.1421 43.0338 23.7085 43.0104 23.4546L42.9166 22.4624C42.901 22.3061 42.9283 21.2827 42.7955 21.1967C42.569 21.0444 42.1393 21.1186 41.8815 21.1225C41.4088 21.1381 40.944 21.1967 40.4635 21.1967C39.8424 21.1967 39.1705 21.2046 38.569 21.353C38.358 21.9116 38.4166 22.4936 38.4166 23.1069C38.4166 23.3921 38.3541 23.7592 38.4674 24.0249Z" fill="#80E1FF"/>
<path d="M35.753 40.896C35.4288 40.4155 35.2686 39.771 34.546 39.8413C33.8663 39.9077 33.2647 40.4467 32.667 40.7397C32.2803 40.9272 31.9991 41.2632 31.921 41.685C31.8311 42.1655 32.0303 42.5483 32.2608 42.9585C32.4327 43.2671 32.546 43.6225 32.6827 43.9467C32.8233 44.2827 33.0381 44.5835 33.1827 44.9155C33.2803 45.1499 33.2491 45.1303 33.4639 45.2124C33.5733 45.2514 33.753 45.2827 33.8702 45.2866C34.5538 45.3061 35.296 44.6147 35.792 44.2085C36.1905 43.8882 36.9874 43.685 36.9053 43.0796C36.8467 42.6303 36.5342 42.1967 36.3194 41.81C36.1397 41.4936 35.9483 41.1889 35.753 40.896Z" fill="#FFE352"/>
<path d="M43.386 44.1774C43.2962 44.1188 43.2102 44.0836 43.1321 44.0719C42.718 43.9977 42.4446 44.4977 42.1165 44.8219C41.7219 45.2008 41.2532 45.5016 40.8938 45.9157C40.5071 46.3688 40.8079 46.775 41.2063 47.0172C41.6399 47.2789 42.0266 47.6071 42.4563 47.8805C42.8391 48.1266 43.1477 48.3453 43.5735 48.0797C43.9602 47.8375 44.1751 47.4118 44.4407 47.0563C44.9329 46.3922 45.7727 45.8571 44.9485 45.1266C44.4876 44.7164 43.8938 44.5133 43.386 44.1774Z" fill="#80E1FF"/>
<path d="M3.36232 21.314C3.38185 21.1343 3.88967 19.6968 3.73732 19.6538C3.38967 19.5679 3.06154 19.4038 2.70998 19.3101C2.30373 19.2046 1.88576 19.1226 1.50685 18.9351C1.04982 18.7085 0.768572 18.8218 0.577166 19.0757C0.307635 19.4351 0.221697 20.0796 0.0927912 20.4741C-0.00877125 20.7827 -0.0712712 21.1343 0.147479 21.353C0.397479 21.5991 0.811541 21.7397 1.13576 21.8452C1.54201 21.978 1.99513 22.2124 2.4131 22.2515C2.98342 22.314 3.30373 21.7983 3.36232 21.314Z" fill="#80E1FF"/>
<path d="M26.6553 7.43906C27.1631 7.66563 27.6553 7.79453 28.1748 7.94297C28.3584 7.99766 28.4756 8.0875 28.667 7.98594C28.9131 7.86094 29.1865 7.42734 29.3232 7.18906C29.6474 6.59922 29.8857 6.01719 30.1084 5.39609C30.2295 5.06406 30.5889 4.525 30.499 4.17344C30.4209 3.87656 29.9912 3.69297 29.749 3.56406C29.4248 3.39609 29.1162 3.16953 28.7881 3.025C28.3662 2.84141 27.7881 2.64219 27.3349 2.57578C27.0849 2.53672 26.9092 2.63828 26.7724 2.79844C26.6474 2.94297 26.5537 3.13438 26.4599 3.31016C25.9873 4.21641 25.4053 5.57969 25.4248 6.62656C25.4326 7.12266 26.2803 7.27109 26.6553 7.43906Z" fill="#80E1FF"/>
<path d="M6.35051 12.814C6.63567 13.2515 6.88958 13.6499 7.22551 14.064C7.55364 14.4624 7.78802 14.5405 8.19036 14.2085C8.44427 14.0054 8.73333 13.8452 8.97552 13.6265C9.20598 13.4233 9.39739 13.1655 9.62786 12.9546C9.79192 12.8022 10.1161 12.6499 10.2099 12.439C10.3388 12.1421 10.0693 11.8843 9.9052 11.6655C9.70208 11.3921 9.54583 11.0952 9.32317 10.8218C9.03801 10.478 8.72942 10.1538 8.40911 9.83349C8.14739 9.57177 7.83098 9.16943 7.53411 8.96631C7.45598 8.91552 7.36614 8.88037 7.27239 8.86865C6.91692 8.81787 6.49505 9.02099 6.2177 9.18506C5.8388 9.40771 5.47161 9.73974 5.13958 10.0327C4.62005 10.4936 5.12395 11.0991 5.42864 11.5366C5.73333 11.9585 6.06145 12.3686 6.35051 12.814Z" fill="#FFE352"/>
<path d="M6.38206 3.70061C6.64378 3.98186 6.968 4.32171 7.33519 4.48186C7.65941 4.62639 7.99144 4.33733 8.25316 4.17718C8.54613 3.99749 8.78441 3.73577 9.00316 3.47405C9.20238 3.23186 9.47191 2.97014 9.62034 2.68889C9.79222 2.36858 9.55784 2.24749 9.31956 2.05608C9.03441 1.82171 8.74534 1.57952 8.50316 1.29827C8.17503 0.915456 7.84691 0.485769 7.49925 0.134206C7.38206 0.0131126 7.24144 -0.0181374 7.093 0.00920634C6.62816 0.0873313 6.07737 0.739675 5.80394 0.954519C5.58519 1.12249 5.20237 1.41936 5.13597 1.69671C5.05394 2.00921 5.23753 2.30999 5.39378 2.57171C5.64769 2.99358 6.03831 3.33343 6.38206 3.70061Z" fill="#80E1FF"/>
<path d="M17.7607 11.2085C18.2997 13.0757 16.8622 14.5171 16.706 16.2866C16.6591 16.7983 16.6591 17.3101 16.745 17.8022C16.7997 18.1226 16.8896 18.4351 17.0497 18.7202C17.2607 19.0952 17.5029 19.4351 17.7255 19.7866C17.9443 20.1265 18.1396 20.4702 18.2724 20.8647C18.5654 21.7397 18.3622 22.5288 18.2372 23.396C18.1357 24.0874 17.7841 24.7397 17.3622 25.2866C17.2333 25.4546 16.8779 25.6694 16.9638 25.9155C16.9755 25.9585 17.0536 25.9741 17.1669 25.9741C17.6357 25.9741 18.7411 25.689 18.9013 25.6147C19.6044 25.2749 20.0146 24.5874 20.3779 23.9233C20.9169 22.939 21.2646 21.7905 21.1122 20.6616C21.081 20.4038 21.0107 20.1616 20.9247 19.9272C20.663 19.228 20.2294 18.603 19.9833 17.8882C19.9521 17.8022 19.9208 17.7163 19.8974 17.6265C19.538 16.228 20.4013 14.8569 21.1279 13.7436C21.8427 12.6538 22.1122 11.0522 21.6044 9.80224C21.3466 9.16943 20.9325 8.53662 20.4286 8.07177C19.831 7.51709 18.9208 7.01318 19.0224 6.05615C19.1083 5.22412 19.6708 4.34912 20.0966 3.66162C20.3075 3.31396 20.9716 2.60302 20.9482 2.20459C20.9286 1.79834 20.3622 1.59521 20.0927 1.35693C19.4833 0.817867 18.999 0.403805 18.2177 0.157711C18.0998 0.115638 17.9757 0.0932049 17.8505 0.0913048C17.3466 0.0913048 17.1708 0.548336 16.8896 1.04052C16.374 1.95068 15.8661 2.91162 15.5224 3.89599C14.874 5.72412 14.7763 7.61084 16.1786 9.32177C16.663 9.91943 17.5575 10.5054 17.7607 11.2085Z" fill="#FDA4CF"/>
<path d="M24.0968 26.9703C24.1945 27.0718 24.2843 27.1148 24.3664 27.1148C24.5187 27.1148 24.6398 26.9586 24.7375 26.775C24.8117 26.6343 24.8703 26.4898 24.9171 26.3375C25.1789 25.4586 25.6984 24.5875 26.1281 23.775C26.2062 23.6304 26.2843 23.4898 26.3586 23.3492C26.6554 22.7906 26.9601 22.232 27.2765 21.6773C27.5226 21.2398 27.7687 20.7984 28.0343 20.3765C28.7296 19.2632 29.6671 18.0757 30.8468 17.4546C31.589 17.0562 32.425 16.8726 33.171 16.4781C34.0187 16.0367 34.5148 15.3687 35.0656 14.607C35.6125 13.8531 35.8976 12.9234 36.3976 12.1304C36.6086 11.7945 36.5773 11.4976 36.9484 11.2632C37.7726 10.7476 38.7609 10.9234 39.675 10.7476C41.8351 10.3336 42.0265 7.48589 43.7921 6.45855C44.1632 6.24371 44.5421 6.04449 44.9171 5.84527C45.1359 5.72808 45.5578 5.58355 45.7101 5.36871C45.9718 5.00152 45.4757 4.52105 45.3273 4.18511C45.0695 3.60699 44.6828 3.02496 44.3507 2.48589C44.0695 2.03277 43.8195 1.62261 43.3195 1.62261L43.2218 1.63042C42.0929 1.7398 41.0851 2.23589 40.3625 3.09917C39.4836 4.15386 39.3664 5.78277 37.9836 6.36089C37.0851 6.73589 36.0265 6.58746 35.175 7.10699C34.1671 7.72418 33.8429 8.94293 33.5617 10.0132C33.3507 10.7945 33.339 11.7359 32.7453 12.3492C31.9406 13.1734 30.7179 13.275 29.6867 13.7164C29.4093 13.8375 29.1437 13.982 28.9054 14.1695C27.5968 15.2007 26.8546 16.8921 26.2687 18.4078C26.0304 19.0289 25.8156 19.6617 25.6046 20.2945C25.4093 20.8843 25.2179 21.4742 25.0343 22.0679C24.9406 22.3726 24.839 22.6773 24.7453 22.9859C24.507 23.7593 24.2882 24.5523 24.007 25.314C23.8117 25.8023 23.6906 26.5484 24.0968 26.9703Z" fill="#FDA4CF"/>
<path d="M49.6277 33.7123C49.5535 33.6342 49.448 33.6264 49.3426 33.6264L49.2215 33.6303L49.1551 33.6264C48.9207 33.6108 48.7254 33.5092 48.4988 33.4311C47.4559 33.0678 46.7801 32.767 45.8582 32.1459C44.8191 31.4467 43.6277 30.7944 42.3465 30.7358L42.198 30.7319C40.9324 30.7319 39.7645 31.3998 38.4949 31.3998H38.4871C37.0809 31.392 35.866 30.392 34.7566 29.6538C34.6629 29.5913 34.5691 29.5327 34.4676 29.478C33.5965 28.9858 32.659 28.7709 31.7137 28.7592C31.6902 28.7592 31.6629 28.7514 31.6394 28.7514C30.9871 28.7514 30.3309 28.853 29.6902 29.0327C29.0652 29.2045 28.4598 29.4545 27.8816 29.7631C27.0538 30.2039 26.2703 30.7232 25.5418 31.3139C25.1394 31.6381 24.698 32.0092 24.4246 32.4584C24.2762 32.6967 24.073 33.603 24.4519 33.7514L24.5027 33.7631C24.6512 33.7631 24.8934 33.6069 24.9988 33.5405C25.8426 33.0209 26.7332 32.5678 27.6824 32.2709C28.4598 32.0248 29.2762 31.8452 30.0848 31.8139C30.1512 31.81 30.2215 31.8061 30.2879 31.8061C30.8699 31.8061 31.448 31.8959 32.0105 32.1147L32.034 32.1264C32.8191 32.4389 33.4754 32.978 34.1238 33.5053C35.0769 34.2788 36.1355 34.4506 37.2137 34.4506C38.0535 34.4506 38.9051 34.3491 39.7371 34.3491C40.6082 34.3491 41.452 34.4623 42.2293 34.9194C42.8621 35.2983 43.4324 35.7944 43.9207 36.3217C44.4598 36.8959 45.1473 37.3764 45.9559 37.5014C46.2996 37.5561 46.6121 37.5834 46.9598 37.5873H46.9676C47.5535 37.5873 47.7762 36.9116 48.073 36.5248C48.4793 36.0014 48.7605 35.3998 49.1316 34.8491C49.2879 34.6069 49.8934 33.978 49.6277 33.7123Z" fill="#FDA4CF"/>
</svg>
