<svg width="54" height="53" viewBox="0 0 54 53" fill="none" xmlns="http://www.w3.org/2000/svg">
<line x1="2.5" y1="17.5" x2="9.5" y2="17.5" stroke="#C4C4C4" stroke-width="5" stroke-linecap="round" stroke-linejoin="round"/>
<line x1="2.5" y1="33.5" x2="9.5" y2="33.5" stroke="#C4C4C4" stroke-width="5" stroke-linecap="round" stroke-linejoin="round"/>
<rect x="6" y="3" width="45" height="47" rx="4" stroke="#C4C4C4" stroke-width="5" stroke-linecap="round" stroke-linejoin="round"/>
<path d="M16.8 41.1333V41.3333H17H18.7H18.9H19.1H37.7H37.9H38.1H39.8H40V41.1333V39.5667V39.3667V39.1667V37.8V37.6V37.4H39.998C39.9425 34.6033 38.7234 31.9352 36.5972 29.9582C34.4681 27.9785 31.5997 26.8497 28.6 26.8016V26.8H28.4H28.2V26.8016C25.2003 26.8497 22.3319 27.9785 20.2028 29.9582C18.0766 31.9352 16.8575 34.6033 16.802 37.4H16.8V37.6V37.8V39.1667V39.3667V39.5667V41.1333ZM35.7969 37.4H21.0031C21.0579 35.656 21.8268 33.9913 23.1622 32.7496C24.549 31.4601 26.4329 30.7333 28.4 30.7333C30.3671 30.7333 32.251 31.4601 33.6378 32.7496C34.9732 33.9913 35.7421 35.656 35.7969 37.4Z" fill="#C4C4C4" stroke="#C4C4C4" stroke-width="0.4"/>
<circle cx="28" cy="19" r="5" stroke="#C4C4C4" stroke-width="4"/>
</svg>
