<svg width="54" height="54" viewBox="0 0 54 54" fill="none" xmlns="http://www.w3.org/2000/svg">
<path d="M5.33333 26.6667C5.33333 21.0087 7.58095 15.5825 11.5817 11.5817C15.5825 7.58095 21.0087 5.33333 26.6667 5.33333C32.3246 5.33333 37.7508 7.58095 41.7516 11.5817C45.7524 15.5825 48 21.0087 48 26.6667C48 32.3246 45.7524 37.7508 41.7516 41.7516C37.7508 45.7524 32.3246 48 26.6667 48C21.0087 48 15.5825 45.7524 11.5817 41.7516C7.58095 37.7508 5.33333 32.3246 5.33333 26.6667ZM26.6667 0C11.9387 0 0 11.9387 0 26.6667C0 41.3947 11.9387 53.3333 26.6667 53.3333C41.3947 53.3333 53.3333 41.3947 53.3333 26.6667C53.3333 11.9387 41.3947 0 26.6667 0ZM20.6853 29.6C20.2232 29.0646 19.5672 28.7348 18.8618 28.683C18.1564 28.6312 17.4594 28.8618 16.924 29.324C16.3886 29.7862 16.0588 30.4421 16.007 31.1475C15.9552 31.8529 16.1858 32.5499 16.648 33.0853C18.808 35.584 22.088 37.3333 26.6667 37.3333C31.2427 37.3333 34.5253 35.584 36.6853 33.0853C37.1475 32.5499 37.3781 31.8529 37.3263 31.1475C37.2746 30.4421 36.9447 29.7862 36.4093 29.324C35.874 28.8618 35.1769 28.6312 34.4715 28.683C33.7661 28.7348 33.1102 29.0646 32.648 29.6C31.5307 30.8933 29.7387 32 26.6667 32C23.5947 32 21.8027 30.8933 20.6853 29.6ZM16 21.3333C16 20.6261 16.281 19.9478 16.781 19.4477C17.2811 18.9476 17.9594 18.6667 18.6667 18.6667H18.6933C19.4006 18.6667 20.0789 18.9476 20.579 19.4477C21.0791 19.9478 21.36 20.6261 21.36 21.3333C21.36 22.0406 21.0791 22.7189 20.579 23.219C20.0789 23.719 19.4006 24 18.6933 24H18.6667C17.9594 24 17.2811 23.719 16.781 23.219C16.281 22.7189 16 22.0406 16 21.3333ZM34.6667 18.6667C33.9594 18.6667 33.2811 18.9476 32.7811 19.4477C32.281 19.9478 32 20.6261 32 21.3333C32 22.0406 32.281 22.7189 32.7811 23.219C33.2811 23.719 33.9594 24 34.6667 24H34.6933C35.4006 24 36.0789 23.719 36.579 23.219C37.079 22.7189 37.36 22.0406 37.36 21.3333C37.36 20.6261 37.079 19.9478 36.579 19.4477C36.0789 18.9476 35.4006 18.6667 34.6933 18.6667H34.6667Z" fill="#C4C4C4"/>
</svg>
