<svg width="80" height="80" viewBox="0 0 80 80" fill="none" xmlns="http://www.w3.org/2000/svg">
<rect width="80" height="80" rx="15" fill="#E5E5E5"/>
<path d="M59.461 69.9997H20.539C20.0295 70.0072 19.525 69.8862 19.0621 69.6455C18.5992 69.4049 18.1896 69.0506 17.8631 68.6084C17.1444 67.6372 16.8547 66.311 17.0692 64.9697C18.0024 59.1173 20.9149 54.2011 25.4927 50.7499C29.5596 47.6862 34.7113 46 40 46C45.2887 46 50.4404 47.6875 54.5073 50.7499C59.0851 54.1999 61.9976 59.1161 62.9308 64.9685C63.1453 66.3097 62.8556 67.636 62.1369 68.6072C61.8105 69.0495 61.4009 69.4041 60.938 69.6449C60.4751 69.8858 59.9705 70.007 59.461 69.9997Z" fill="#CECECE"/>
<circle cx="39.7959" cy="31.7959" r="10.7959" fill="#CECECE"/>
</svg>
