<svg width="25" height="25" viewBox="0 0 25 25" fill="none" xmlns="http://www.w3.org/2000/svg">
<circle cx="12.5" cy="12.5" r="12.25" fill="white" stroke="#C4C4C4" stroke-width="0.5"/>
<path fill-rule="evenodd" clip-rule="evenodd" d="M6.88571 6.88571C6.38559 6.88571 5.90595 7.08439 5.55231 7.43803C5.19867 7.79167 5 8.27131 5 8.77143V16.3143C5 16.8144 5.19867 17.294 5.55231 17.6477C5.90595 18.0013 6.38559 18.2 6.88571 18.2H18.2C18.7001 18.2 19.1798 18.0013 19.5334 17.6477C19.887 17.294 20.0857 16.8144 20.0857 16.3143V8.77143C20.0857 8.27131 19.887 7.79167 19.5334 7.43803C19.1798 7.08439 18.7001 6.88571 18.2 6.88571H16.7046C16.4546 6.88566 16.2148 6.78629 16.038 6.60946L14.9811 5.55251C14.6275 5.19885 14.148 5.00011 13.6479 5H11.4378C10.9377 5.00011 10.4582 5.19885 10.1046 5.55251L9.04769 6.60946C8.87091 6.78629 8.63113 6.88566 8.38109 6.88571H6.88571ZM12.5429 15.3714C12.9143 15.3714 13.2821 15.2983 13.6253 15.1561C13.9685 15.014 14.2803 14.8056 14.543 14.543C14.8056 14.2803 15.014 13.9685 15.1561 13.6253C15.2983 13.2821 15.3714 12.9143 15.3714 12.5429C15.3714 12.1714 15.2983 11.8036 15.1561 11.4604C15.014 11.1172 14.8056 10.8054 14.543 10.5428C14.2803 10.2801 13.9685 10.0717 13.6253 9.9296C13.2821 9.78745 12.9143 9.71429 12.5429 9.71429C11.7927 9.71429 11.0732 10.0123 10.5428 10.5428C10.0123 11.0732 9.71429 11.7927 9.71429 12.5429C9.71429 13.293 10.0123 14.0125 10.5428 14.543C11.0732 15.0734 11.7927 15.3714 12.5429 15.3714Z" fill="#C4C4C4"/>
</svg>
