<svg width="102" height="102" viewBox="0 0 102 102" fill="none" xmlns="http://www.w3.org/2000/svg">
<circle cx="51" cy="51" r="51" fill="#E5E5E5"/>
<path d="M71.216 76.0248H30.6853C30.1548 76.0326 29.6294 75.9067 29.1474 75.656C28.6653 75.4054 28.2388 75.0365 27.8988 74.5761C27.1503 73.5647 26.8487 72.1837 27.072 70.787C28.0439 64.6927 31.0768 59.5733 35.8437 55.9795C40.0787 52.7891 45.4433 51.0332 50.9506 51.0332C56.458 51.0332 61.8226 52.7904 66.0576 55.9795C70.8245 59.572 73.8574 64.6914 74.8292 70.7857C75.0526 72.1824 74.7509 73.5634 74.0025 74.5748C73.6626 75.0354 73.2361 75.4046 72.7541 75.6555C72.2721 75.9063 71.7466 76.0325 71.216 76.0248Z" fill="#CECECE"/>
<circle cx="50.7382" cy="36.2421" r="11.2421" fill="#CECECE"/>
<circle cx="87.5" cy="88.5" r="12.25" fill="white" stroke="#C4C4C4" stroke-width="0.5"/>
<path fill-rule="evenodd" clip-rule="evenodd" d="M81.8857 82.8857C81.3856 82.8857 80.906 83.0844 80.5523 83.438C80.1987 83.7917 80 84.2713 80 84.7714V92.3143C80 92.8144 80.1987 93.294 80.5523 93.6477C80.906 94.0013 81.3856 94.2 81.8857 94.2H93.2C93.7001 94.2 94.1798 94.0013 94.5334 93.6477C94.887 93.294 95.0857 92.8144 95.0857 92.3143V84.7714C95.0857 84.2713 94.887 83.7917 94.5334 83.438C94.1798 83.0844 93.7001 82.8857 93.2 82.8857H91.7046C91.4546 82.8857 91.2148 82.7863 91.038 82.6095L89.9811 81.5525C89.6275 81.1988 89.148 81.0001 88.6479 81H86.4378C85.9377 81.0001 85.4582 81.1988 85.1046 81.5525L84.0477 82.6095C83.8709 82.7863 83.6311 82.8857 83.3811 82.8857H81.8857ZM87.5429 91.3714C87.9143 91.3714 88.2821 91.2983 88.6253 91.1561C88.9685 91.014 89.2803 90.8056 89.543 90.543C89.8056 90.2803 90.014 89.9685 90.1561 89.6253C90.2983 89.2821 90.3714 88.9143 90.3714 88.5429C90.3714 88.1714 90.2983 87.8036 90.1561 87.4604C90.014 87.1172 89.8056 86.8054 89.543 86.5428C89.2803 86.2801 88.9685 86.0717 88.6253 85.9296C88.2821 85.7874 87.9143 85.7143 87.5429 85.7143C86.7927 85.7143 86.0732 86.0123 85.5428 86.5428C85.0123 87.0732 84.7143 87.7927 84.7143 88.5429C84.7143 89.293 85.0123 90.0125 85.5428 90.543C86.0732 91.0734 86.7927 91.3714 87.5429 91.3714Z" fill="#C4C4C4"/>
</svg>
