<svg width="18" height="18" viewBox="0 0 18 18" fill="none" xmlns="http://www.w3.org/2000/svg">
<path d="M13.7285 10.6699C13.5879 10.6113 13.4443 10.6084 13.2979 10.6611C13.1514 10.7139 13.0488 10.8105 12.9902 10.9512L12.9111 11.1094L12.6914 11.4609L12.3047 11.9707L11.7422 12.5068L11.0039 13.0078L10.0811 13.3682L8.96484 13.5176C8.95312 13.5176 8.94141 13.5205 8.92969 13.5264L8.91211 13.5352C8.58398 13.5352 8.26758 13.5 7.96289 13.4297C7.6582 13.3594 7.38867 13.2627 7.1543 13.1396C6.91992 13.0166 6.7002 12.8848 6.49512 12.7441C6.29004 12.6035 6.1084 12.4482 5.9502 12.2783C5.79199 12.1084 5.6543 11.9531 5.53711 11.8125C5.41992 11.6719 5.32031 11.5312 5.23828 11.3906C5.15625 11.25 5.09766 11.1504 5.0625 11.0918C5.02734 11.0332 5.00391 10.9863 4.99219 10.9512C4.92188 10.8105 4.81641 10.7139 4.67578 10.6611C4.53516 10.6084 4.3916 10.6143 4.24512 10.6787C4.09863 10.7432 3.99902 10.8457 3.94629 10.9863C3.89355 11.127 3.90234 11.2734 3.97266 11.4258C3.98438 11.4609 4.00488 11.5078 4.03418 11.5664C4.06348 11.625 4.125 11.7275 4.21875 11.874C4.3125 12.0205 4.40918 12.167 4.50879 12.3135C4.6084 12.46 4.74316 12.627 4.91309 12.8145C5.08301 13.002 5.26172 13.1777 5.44922 13.3418C5.63672 13.5059 5.85645 13.6699 6.1084 13.834C6.36035 13.998 6.62402 14.1387 6.89941 14.2559C7.1748 14.373 7.48535 14.4697 7.83105 14.5459C8.17676 14.6221 8.53125 14.6602 8.89453 14.6602C8.90625 14.6602 8.92969 14.6543 8.96484 14.6426C9.63281 14.6426 10.2656 14.5283 10.8633 14.2998C11.4609 14.0713 11.9355 13.8193 12.2871 13.5439C12.6387 13.2686 12.958 12.9492 13.2451 12.5859C13.5322 12.2227 13.7197 11.9619 13.8076 11.8037C13.8955 11.6455 13.9629 11.5137 14.0098 11.4082C14.0449 11.3613 14.0654 11.3057 14.0713 11.2412C14.0771 11.1768 14.0713 11.1182 14.0537 11.0654C14.0361 11.0127 14.0156 10.96 13.9922 10.9072C13.9688 10.8545 13.9336 10.8076 13.8867 10.7666C13.8398 10.7256 13.7871 10.6934 13.7285 10.6699ZM9 0C7.78125 0 6.61523 0.237305 5.50195 0.711914C4.38867 1.18652 3.43066 1.8252 2.62793 2.62793C1.8252 3.43066 1.18652 4.38867 0.711914 5.50195C0.237305 6.61523 0 7.78125 0 9C0 10.2188 0.237305 11.3848 0.711914 12.498C1.18652 13.6113 1.8252 14.5693 2.62793 15.3721C3.43066 16.1748 4.38867 16.8135 5.50195 17.2881C6.61523 17.7627 7.78125 18 9 18C10.2188 18 11.3848 17.7627 12.498 17.2881C13.6113 16.8135 14.5693 16.1748 15.3721 15.3721C16.1748 14.5693 16.8135 13.6113 17.2881 12.498C17.7627 11.3848 18 10.2188 18 9C18 7.78125 17.7627 6.61523 17.2881 5.50195C16.8135 4.38867 16.1748 3.43066 15.3721 2.62793C14.5693 1.8252 13.6113 1.18652 12.498 0.711914C11.3848 0.237305 10.2188 0 9 0ZM9 16.875C8.14453 16.875 7.31543 16.7432 6.5127 16.4795C5.70996 16.2158 4.98633 15.8408 4.3418 15.3545C3.69727 14.8682 3.13184 14.3027 2.64551 13.6582C2.15918 13.0137 1.78418 12.29 1.52051 11.4873C1.25684 10.6846 1.125 9.85547 1.125 9C1.125 7.93359 1.33301 6.91406 1.74902 5.94141C2.16504 4.96875 2.72461 4.13086 3.42773 3.42773C4.13086 2.72461 4.96875 2.16504 5.94141 1.74902C6.91406 1.33301 7.93359 1.125 9 1.125C10.0664 1.125 11.0859 1.33301 12.0586 1.74902C13.0312 2.16504 13.8691 2.72461 14.5723 3.42773C15.2754 4.13086 15.835 4.96875 16.251 5.94141C16.667 6.91406 16.875 7.93359 16.875 9C16.875 10.0664 16.667 11.0859 16.251 12.0586C15.835 13.0312 15.2754 13.8691 14.5723 14.5723C13.8691 15.2754 13.0312 15.835 12.0586 16.251C11.0859 16.667 10.0664 16.875 9 16.875ZM6.1875 8.4375C6.49219 8.4375 6.75293 8.32617 6.96973 8.10352C7.18652 7.88086 7.29492 7.61719 7.29492 7.3125C7.29492 7.11328 7.24512 6.92578 7.14551 6.75C7.0459 6.57422 6.91113 6.43652 6.74121 6.33691C6.57129 6.2373 6.38672 6.1875 6.1875 6.1875C5.87109 6.1875 5.60449 6.29883 5.3877 6.52148C5.1709 6.74414 5.0625 7.00781 5.0625 7.3125C5.0625 7.76953 5.26172 8.10352 5.66016 8.31445C5.83594 8.39648 6.01172 8.4375 6.1875 8.4375ZM11.8125 8.4375C11.8945 8.4375 11.9766 8.42578 12.0586 8.40234C12.1406 8.37891 12.2197 8.34961 12.2959 8.31445C12.3721 8.2793 12.4424 8.23535 12.5068 8.18262C12.5713 8.12988 12.6299 8.07129 12.6826 8.00684C12.7354 7.94238 12.7793 7.875 12.8145 7.80469C12.8496 7.73438 12.876 7.65527 12.8936 7.56738C12.9111 7.47949 12.9199 7.39453 12.9199 7.3125C12.9199 7.00781 12.8115 6.74414 12.5947 6.52148C12.3779 6.29883 12.1143 6.1875 11.8037 6.1875C11.4932 6.1875 11.2295 6.29883 11.0127 6.52148C10.7959 6.74414 10.6875 7.00781 10.6875 7.3125C10.6875 7.61719 10.7959 7.88086 11.0127 8.10352C11.2295 8.32617 11.4961 8.4375 11.8125 8.4375Z" fill="black"/>
</svg>
