<svg width="21" height="19" viewBox="0 0 21 19" fill="none" xmlns="http://www.w3.org/2000/svg">
<path d="M10.5 0C4.725 0 0 3.759 0 8.4C0.0263638 9.51583 0.298858 10.6121 0.798011 11.6104C1.29716 12.6087 2.01065 13.4844 2.8875 14.175C2.8875 14.805 2.4465 16.4535 0 18.9C2.4885 18.7845 4.872 17.85 6.7935 16.275C7.9905 16.6215 9.2505 16.8 10.5 16.8C16.275 16.8 21 13.041 21 8.4C21 3.759 16.275 0 10.5 0ZM10.5 14.7C5.859 14.7 2.1 11.8755 2.1 8.4C2.1 4.9245 5.859 2.1 10.5 2.1C15.141 2.1 18.9 4.9245 18.9 8.4C18.9 11.8755 15.141 14.7 10.5 14.7ZM15.75 9.45V7.35H13.65V9.45H15.75ZM11.55 9.45V7.35H9.45V9.45H11.55ZM7.35 9.45V7.35H5.25V9.45H7.35Z" fill="white"/>
</svg>
